# xmcd
#
# Track frame offsets: 
#        150
#        15479
#        29141
#        36685
#        48060
#        57041
#        66893
#        82865
#        95525
#        111719
#
# Disc length: 1659 seconds
#
# Revision: 0
# Processed by: cddbd v1.5.2PL0 Copyright (c) Steve Scherf et al.
# Submitted via: ExactAudioCopyFreeDBPlugin 1.0
#
DISCID=8406790a
DTITLE=Jimmie Crawford - Steel Crazy
DYEAR=1982
DGENRE=Country
TTITLE0=American Flyer
TTITLE1=Here Comes My Baby
TTITLE2=Rolls Choice
TTITLE3=Black Mountain Rag
TTITLE4=Nashvul Rambler
TTITLE5=Country Boy Overture
TTITLE6=I'm In Love Again
TTITLE7=Huckle Buckle Man
TTITLE8=Troops
TTITLE9=Dee Dee
EXTD=
EXTT0=
EXTT1=
EXTT2=
EXTT3=
EXTT4=
EXTT5=
EXTT6=
EXTT7=
EXTT8=
EXTT9=
PLAYORDER=
